<?xml version='1.0' encoding='UTF-8' standalone='no'?>
<svg viewBox="0 0 2970 2100" width="297mm" xmlns:xlink="http://www.w3.org/1999/xlink" xmlns:dc="http://purl.org/dc/elements/1.1/" xmlns:freecad="https://www.freecad.org/wiki/index.php?title=Svg_Namespace" version="1.2" xmlns:svg="http://www.w3.org/2000/svg" xmlns:sodipodi="http://sodipodi.sourceforge.net/DTD/sodipodi-0.dtd" xmlns="http://www.w3.org/2000/svg" xmlns:cc="http://creativecommons.org/ns#" xmlns:inkscape="http://www.inkscape.org/namespaces/inkscape" xmlns:rdf="http://www.w3.org/1999/02/22-rdf-syntax-ns#" height="210mm" baseProfile="tiny">
 <title>FreeCAD SVG Export</title>
 <desc>Drawing page: Page exported from FreeCAD document: Unnamed</desc>
 <defs/>
 <g id="Page" inkscape:groupmode="layer" inkscape:label="TechDraw">
  <g style="stroke: none;" transform="scale(10.000000, 10.000000)" id="Default_Template_A4_Landscape.svg">
   <metadata id="metadata8">
    <rdf:RDF>
     <cc:Work rdf:about="">
      <dc:format>image/svg+xml</dc:format>
      <dc:type rdf:resource="http://purl.org/dc/dcmitype/StillImage"/>
     </cc:Work>
    </rdf:RDF>
   </metadata>
  </g>
  <g fill-rule="evenodd" id="DrawingContent" stroke-linecap="square" stroke-linejoin="bevel" stroke="black" fill="none" stroke-width="1">
   <g transform="matrix(1,0,0,1,3741.73,-429.995)" font-weight="400" font-family="MS UI Gothic" stroke-linecap="square" stroke-opacity="1" stroke-linejoin="bevel" font-style="normal" stroke="#000000" fill="none" stroke-width="1" font-size="31.75">
    <rect width="0" y="0" x="0" height="0"/>
   </g>
   <g transform="matrix(1,0,0,1,3741.73,-429.995)" font-weight="400" font-family="MS UI Gothic" fill-opacity="1" font-style="normal" stroke="none" fill="#f1f3f5" font-size="31.75">
    <path fill-rule="evenodd" vector-effect="non-scaling-stroke" d="M1000,0 L1000,400 L-1000,400 L-1000,0 L-1000,-400 L1000,-400 L1000,0"/>
   </g>
   <g transform="matrix(1,0,0,1,3741.73,-429.995)" font-weight="400" font-family="MS UI Gothic" fill-opacity="1" font-style="normal" stroke="none" fill="#f1f3f5" font-size="31.75">
    <path fill-rule="evenodd" vector-effect="non-scaling-stroke" d="M-1000,0 L1000,0 L1000,400 L-1000,400 L-1000,0"/>
   </g>
   <g transform="matrix(1,0,0,1,3741.73,-429.995)" font-weight="400" font-family="MS UI Gothic" fill-opacity="1" font-style="normal" stroke="none" fill="#f1f3f5" font-size="31.75">
    <path fill-rule="evenodd" vector-effect="non-scaling-stroke" d="M-1000,0 L1000,0 L1000,-400 L-1000,-400 L-1000,0"/>
   </g>
   <g transform="matrix(1,0,0,1,3741.73,-429.995)" font-weight="400" font-family="MS UI Gothic" stroke-linecap="round" stroke-opacity="1" stroke-linejoin="bevel" font-style="normal" stroke="#000000" fill="none" stroke-width="7" font-size="31.75">
    <path fill-rule="evenodd" vector-effect="none" d="M-1000,0 L-1000,400"/>
   </g>
   <g transform="matrix(1,0,0,1,3741.73,-429.995)" font-weight="400" font-family="MS UI Gothic" stroke-linecap="round" stroke-opacity="1" stroke-linejoin="bevel" font-style="normal" stroke="#000000" fill="none" stroke-width="7" font-size="31.75">
    <path fill-rule="evenodd" vector-effect="none" d="M1000,0 L1000,400"/>
   </g>
   <g transform="matrix(1,0,0,1,3741.73,-429.995)" font-weight="400" font-family="MS UI Gothic" stroke-linecap="round" stroke-opacity="1" stroke-linejoin="bevel" font-style="normal" stroke="#000000" fill="none" stroke-width="7" font-size="31.75">
    <path fill-rule="evenodd" vector-effect="none" d="M-1000,0 L1000,0"/>
   </g>
   <g transform="matrix(1,0,0,1,3741.73,-429.995)" font-weight="400" font-family="MS UI Gothic" stroke-linecap="round" stroke-opacity="1" stroke-linejoin="bevel" font-style="normal" stroke="#000000" fill="none" stroke-width="7" font-size="31.75">
    <path fill-rule="evenodd" vector-effect="none" d="M-1000,400 L1000,400"/>
   </g>
   <g transform="matrix(1,0,0,1,3741.73,-429.995)" font-weight="400" font-family="MS UI Gothic" stroke-linecap="round" stroke-opacity="1" stroke-linejoin="bevel" font-style="normal" stroke="#000000" fill="none" stroke-width="7" font-size="31.75">
    <path fill-rule="evenodd" vector-effect="none" d="M-1000,0 L-1000,-400"/>
   </g>
   <g transform="matrix(1,0,0,1,3741.73,-429.995)" font-weight="400" font-family="MS UI Gothic" stroke-linecap="round" stroke-opacity="1" stroke-linejoin="bevel" font-style="normal" stroke="#000000" fill="none" stroke-width="7" font-size="31.75">
    <path fill-rule="evenodd" vector-effect="none" d="M1000,0 L1000,-400"/>
   </g>
   <g transform="matrix(1,0,0,1,3741.73,-429.995)" font-weight="400" font-family="MS UI Gothic" stroke-linecap="round" stroke-opacity="1" stroke-linejoin="bevel" font-style="normal" stroke="#000000" fill="none" stroke-width="7" font-size="31.75">
    <path fill-rule="evenodd" vector-effect="none" d="M-1000,-400 L1000,-400"/>
   </g>
   <g transform="matrix(1,0,0,1,1531.07,1058.98)" font-weight="400" font-family="MS UI Gothic" fill-opacity="1" font-style="normal" stroke="none" fill="#f1f3f5" font-size="31.75">
    <path fill-rule="evenodd" vector-effect="non-scaling-stroke" d="M1060.66,204.124 L1060.66,530.723 L353.553,938.971 L-1060.66,122.474 L-1060.66,-204.124 L-1060.66,-530.723 L-353.553,-938.971 L1060.66,-122.474 L1060.66,204.124"/>
   </g>
   <g transform="matrix(1,0,0,1,1531.07,1058.98)" font-weight="400" font-family="MS UI Gothic" fill-opacity="1" font-style="normal" stroke="none" fill="#f1f3f5" font-size="31.75">
    <path fill-rule="evenodd" vector-effect="non-scaling-stroke" d="M353.553,285.774 L1060.66,-122.474 L-353.553,-938.971 L-1060.66,-530.723 L353.553,285.774"/>
   </g>
   <g transform="matrix(1,0,0,1,1531.07,1058.98)" font-weight="400" font-family="MS UI Gothic" fill-opacity="1" font-style="normal" stroke="none" fill="#f1f3f5" font-size="31.75">
    <path fill-rule="evenodd" vector-effect="non-scaling-stroke" d="M-1060.66,-204.124 L353.553,612.372 L353.553,285.774 L-1060.66,-530.723 L-1060.66,-204.124"/>
   </g>
   <g transform="matrix(1,0,0,1,1531.07,1058.98)" font-weight="400" font-family="MS UI Gothic" fill-opacity="1" font-style="normal" stroke="none" fill="#f1f3f5" font-size="31.75">
    <path fill-rule="evenodd" vector-effect="non-scaling-stroke" d="M-1060.66,-204.124 L353.553,612.372 L353.553,938.971 L-1060.66,122.474 L-1060.66,-204.124"/>
   </g>
   <g transform="matrix(1,0,0,1,1531.07,1058.98)" font-weight="400" font-family="MS UI Gothic" fill-opacity="1" font-style="normal" stroke="none" fill="#f1f3f5" font-size="31.75">
    <path fill-rule="evenodd" vector-effect="non-scaling-stroke" d="M353.553,612.372 L1060.66,204.124 L1060.66,-122.474 L353.553,285.774 L353.553,612.372"/>
   </g>
   <g transform="matrix(1,0,0,1,1531.07,1058.98)" font-weight="400" font-family="MS UI Gothic" fill-opacity="1" font-style="normal" stroke="none" fill="#f1f3f5" font-size="31.75">
    <path fill-rule="evenodd" vector-effect="non-scaling-stroke" d="M353.553,612.372 L1060.66,204.124 L1060.66,530.723 L353.553,938.971 L353.553,612.372"/>
   </g>
   <g transform="matrix(1,0,0,1,1531.07,1058.98)" font-weight="400" font-family="MS UI Gothic" stroke-linecap="round" stroke-opacity="1" stroke-linejoin="bevel" font-style="normal" stroke="#000000" fill="none" stroke-width="7" font-size="31.75">
    <path fill-rule="evenodd" vector-effect="none" d="M-1060.66,-204.124 L-1060.66,122.474"/>
   </g>
   <g transform="matrix(1,0,0,1,1531.07,1058.98)" font-weight="400" font-family="MS UI Gothic" stroke-linecap="round" stroke-opacity="1" stroke-linejoin="bevel" font-style="normal" stroke="#000000" fill="none" stroke-width="7" font-size="31.75">
    <path fill-rule="evenodd" vector-effect="none" d="M353.553,612.372 L353.553,938.971"/>
   </g>
   <g transform="matrix(1,0,0,1,1531.07,1058.98)" font-weight="400" font-family="MS UI Gothic" stroke-linecap="round" stroke-opacity="1" stroke-linejoin="bevel" font-style="normal" stroke="#000000" fill="none" stroke-width="7" font-size="31.75">
    <path fill-rule="evenodd" vector-effect="none" d="M-1060.66,-204.124 L353.553,612.372"/>
   </g>
   <g transform="matrix(1,0,0,1,1531.07,1058.98)" font-weight="400" font-family="MS UI Gothic" stroke-linecap="round" stroke-opacity="1" stroke-linejoin="bevel" font-style="normal" stroke="#000000" fill="none" stroke-width="7" font-size="31.75">
    <path fill-rule="evenodd" vector-effect="none" d="M-1060.66,122.474 L353.553,938.971"/>
   </g>
   <g transform="matrix(1,0,0,1,1531.07,1058.98)" font-weight="400" font-family="MS UI Gothic" stroke-linecap="round" stroke-opacity="1" stroke-linejoin="bevel" font-style="normal" stroke="#000000" fill="none" stroke-width="7" font-size="31.75">
    <path fill-rule="evenodd" vector-effect="none" d="M1060.66,204.124 L1060.66,530.723"/>
   </g>
   <g transform="matrix(1,0,0,1,1531.07,1058.98)" font-weight="400" font-family="MS UI Gothic" stroke-linecap="round" stroke-opacity="1" stroke-linejoin="bevel" font-style="normal" stroke="#000000" fill="none" stroke-width="7" font-size="31.75">
    <path fill-rule="evenodd" vector-effect="none" d="M353.553,612.372 L1060.66,204.124"/>
   </g>
   <g transform="matrix(1,0,0,1,1531.07,1058.98)" font-weight="400" font-family="MS UI Gothic" stroke-linecap="round" stroke-opacity="1" stroke-linejoin="bevel" font-style="normal" stroke="#000000" fill="none" stroke-width="7" font-size="31.75">
    <path fill-rule="evenodd" vector-effect="none" d="M353.553,938.971 L1060.66,530.723"/>
   </g>
   <g transform="matrix(1,0,0,1,1531.07,1058.98)" font-weight="400" font-family="MS UI Gothic" stroke-linecap="round" stroke-opacity="1" stroke-linejoin="bevel" font-style="normal" stroke="#000000" fill="none" stroke-width="7" font-size="31.75">
    <path fill-rule="evenodd" vector-effect="none" d="M-1060.66,-204.124 L-1060.66,-530.723"/>
   </g>
   <g transform="matrix(1,0,0,1,1531.07,1058.98)" font-weight="400" font-family="MS UI Gothic" stroke-linecap="round" stroke-opacity="1" stroke-linejoin="bevel" font-style="normal" stroke="#000000" fill="none" stroke-width="7" font-size="31.75">
    <path fill-rule="evenodd" vector-effect="none" d="M353.553,612.372 L353.553,285.774"/>
   </g>
   <g transform="matrix(1,0,0,1,1531.07,1058.98)" font-weight="400" font-family="MS UI Gothic" stroke-linecap="round" stroke-opacity="1" stroke-linejoin="bevel" font-style="normal" stroke="#000000" fill="none" stroke-width="7" font-size="31.75">
    <path fill-rule="evenodd" vector-effect="none" d="M-1060.66,-530.723 L353.553,285.774"/>
   </g>
   <g transform="matrix(1,0,0,1,1531.07,1058.98)" font-weight="400" font-family="MS UI Gothic" stroke-linecap="round" stroke-opacity="1" stroke-linejoin="bevel" font-style="normal" stroke="#000000" fill="none" stroke-width="7" font-size="31.75">
    <path fill-rule="evenodd" vector-effect="none" d="M1060.66,204.124 L1060.66,-122.474"/>
   </g>
   <g transform="matrix(1,0,0,1,1531.07,1058.98)" font-weight="400" font-family="MS UI Gothic" stroke-linecap="round" stroke-opacity="1" stroke-linejoin="bevel" font-style="normal" stroke="#000000" fill="none" stroke-width="7" font-size="31.75">
    <path fill-rule="evenodd" vector-effect="none" d="M353.553,285.774 L1060.66,-122.474"/>
   </g>
   <g transform="matrix(1,0,0,1,1531.07,1058.98)" font-weight="400" font-family="MS UI Gothic" stroke-linecap="round" stroke-opacity="1" stroke-linejoin="bevel" font-style="normal" stroke="#000000" fill="none" stroke-width="7" font-size="31.75">
    <path fill-rule="evenodd" vector-effect="none" d="M1060.66,-122.474 L-353.553,-938.971"/>
   </g>
   <g transform="matrix(1,0,0,1,1531.07,1058.98)" font-weight="400" font-family="MS UI Gothic" stroke-linecap="round" stroke-opacity="1" stroke-linejoin="bevel" font-style="normal" stroke="#000000" fill="none" stroke-width="7" font-size="31.75">
    <path fill-rule="evenodd" vector-effect="none" d="M-353.553,-938.971 L-1060.66,-530.723"/>
   </g>
   <g transform="matrix(1,0,0,1,1531.07,1058.98)" font-weight="400" stroke-dasharray="42,10.5" font-family="MS UI Gothic" stroke-linecap="round" stroke-opacity="1" stroke-dashoffset="0" stroke-linejoin="bevel" font-style="normal" stroke="#000000" fill="none" stroke-width="3.5" font-size="31.75">
    <path fill-rule="evenodd" vector-effect="none" d="M-565.685,-163.299 L-565.685,-171.456"/>
   </g>
   <g transform="matrix(1,0,0,1,1531.07,1058.98)" font-weight="400" stroke-dasharray="42,10.5" font-family="MS UI Gothic" stroke-linecap="round" stroke-opacity="1" stroke-dashoffset="0" stroke-linejoin="bevel" font-style="normal" stroke="#000000" fill="none" stroke-width="3.5" font-size="31.75">
    <path fill-rule="evenodd" vector-effect="none" d="M282.843,326.599 L282.843,318.442"/>
   </g>
   <g transform="matrix(1,0,0,1,1531.07,1058.98)" font-weight="400" stroke-dasharray="42,10.5" font-family="MS UI Gothic" stroke-linecap="round" stroke-opacity="1" stroke-dashoffset="0" stroke-linejoin="bevel" font-style="normal" stroke="#000000" fill="none" stroke-width="3.5" font-size="31.75">
    <path fill-rule="evenodd" vector-effect="none" d="M-565.685,-163.299 L282.843,326.599"/>
   </g>
   <g transform="matrix(1,0,0,1,1531.07,1058.98)" font-weight="400" stroke-dasharray="42,10.5" font-family="MS UI Gothic" stroke-linecap="round" stroke-opacity="1" stroke-dashoffset="0" stroke-linejoin="bevel" font-style="normal" stroke="#000000" fill="none" stroke-width="3.5" font-size="31.75">
    <path fill-rule="evenodd" vector-effect="none" d="M-565.685,-171.456 L282.843,318.442"/>
   </g>
   <g transform="matrix(1,0,0,1,1531.07,1058.98)" font-weight="400" stroke-dasharray="42,10.5" font-family="MS UI Gothic" stroke-linecap="round" stroke-opacity="1" stroke-dashoffset="0" stroke-linejoin="bevel" font-style="normal" stroke="#000000" fill="none" stroke-width="3.5" font-size="31.75">
    <path fill-rule="evenodd" vector-effect="none" d="M565.685,163.299 L565.685,155.143"/>
   </g>
   <g transform="matrix(1,0,0,1,1531.07,1058.98)" font-weight="400" stroke-dasharray="42,10.5" font-family="MS UI Gothic" stroke-linecap="round" stroke-opacity="1" stroke-dashoffset="0" stroke-linejoin="bevel" font-style="normal" stroke="#000000" fill="none" stroke-width="3.5" font-size="31.75">
    <path fill-rule="evenodd" vector-effect="none" d="M282.843,326.599 L565.685,163.299"/>
   </g>
   <g transform="matrix(1,0,0,1,1531.07,1058.98)" font-weight="400" stroke-dasharray="42,10.5" font-family="MS UI Gothic" stroke-linecap="round" stroke-opacity="1" stroke-dashoffset="0" stroke-linejoin="bevel" font-style="normal" stroke="#000000" fill="none" stroke-width="3.5" font-size="31.75">
    <path fill-rule="evenodd" vector-effect="none" d="M282.843,318.442 L565.685,155.143"/>
   </g>
   <g transform="matrix(1,0,0,1,1531.07,1058.98)" font-weight="400" stroke-dasharray="42,10.5" font-family="MS UI Gothic" stroke-linecap="round" stroke-opacity="1" stroke-dashoffset="0" stroke-linejoin="bevel" font-style="normal" stroke="#000000" fill="none" stroke-width="3.5" font-size="31.75">
    <path fill-rule="evenodd" vector-effect="none" d="M-282.843,-326.599 L-282.843,-334.755"/>
   </g>
   <g transform="matrix(1,0,0,1,1531.07,1058.98)" font-weight="400" stroke-dasharray="42,10.5" font-family="MS UI Gothic" stroke-linecap="round" stroke-opacity="1" stroke-dashoffset="0" stroke-linejoin="bevel" font-style="normal" stroke="#000000" fill="none" stroke-width="3.5" font-size="31.75">
    <path fill-rule="evenodd" vector-effect="none" d="M565.685,163.299 L-282.843,-326.599"/>
   </g>
   <g transform="matrix(1,0,0,1,1531.07,1058.98)" font-weight="400" stroke-dasharray="42,10.5" font-family="MS UI Gothic" stroke-linecap="round" stroke-opacity="1" stroke-dashoffset="0" stroke-linejoin="bevel" font-style="normal" stroke="#000000" fill="none" stroke-width="3.5" font-size="31.75">
    <path fill-rule="evenodd" vector-effect="none" d="M565.685,155.143 L-282.843,-334.755"/>
   </g>
   <g transform="matrix(1,0,0,1,1531.07,1058.98)" font-weight="400" stroke-dasharray="42,10.5" font-family="MS UI Gothic" stroke-linecap="round" stroke-opacity="1" stroke-dashoffset="0" stroke-linejoin="bevel" font-style="normal" stroke="#000000" fill="none" stroke-width="3.5" font-size="31.75">
    <path fill-rule="evenodd" vector-effect="none" d="M-282.843,-334.755 L-565.685,-171.456"/>
   </g>
   <g transform="matrix(1,0,0,1,1531.07,1058.98)" font-weight="400" stroke-dasharray="42,10.5" font-family="MS UI Gothic" stroke-linecap="round" stroke-opacity="1" stroke-dashoffset="0" stroke-linejoin="bevel" font-style="normal" stroke="#000000" fill="none" stroke-width="3.5" font-size="31.75">
    <path fill-rule="evenodd" vector-effect="none" d="M-141.421,-8.1568 L-141.421,-16.4034"/>
   </g>
   <g transform="matrix(1,0,0,1,1531.07,1058.98)" font-weight="400" stroke-dasharray="42,10.5" font-family="MS UI Gothic" stroke-linecap="round" stroke-opacity="1" stroke-dashoffset="0" stroke-linejoin="bevel" font-style="normal" stroke="#000000" fill="none" stroke-width="3.5" font-size="31.75">
    <path fill-rule="evenodd" vector-effect="none" d="M0,73.4929 L0,65.2462"/>
   </g>
   <g transform="matrix(1,0,0,1,1531.07,1058.98)" font-weight="400" stroke-dasharray="42,10.5" font-family="MS UI Gothic" stroke-linecap="round" stroke-opacity="1" stroke-dashoffset="0" stroke-linejoin="bevel" font-style="normal" stroke="#000000" fill="none" stroke-width="3.5" font-size="31.75">
    <path fill-rule="evenodd" vector-effect="none" d="M-141.421,-8.1568 L0,73.4929"/>
   </g>
   <g transform="matrix(1,0,0,1,1531.07,1058.98)" font-weight="400" stroke-dasharray="42,10.5" font-family="MS UI Gothic" stroke-linecap="round" stroke-opacity="1" stroke-dashoffset="0" stroke-linejoin="bevel" font-style="normal" stroke="#000000" fill="none" stroke-width="3.5" font-size="31.75">
    <path fill-rule="evenodd" vector-effect="none" d="M-141.421,-16.4034 L0,65.2462"/>
   </g>
   <g transform="matrix(1,0,0,1,1531.07,1058.98)" font-weight="400" stroke-dasharray="42,10.5" font-family="MS UI Gothic" stroke-linecap="round" stroke-opacity="1" stroke-dashoffset="0" stroke-linejoin="bevel" font-style="normal" stroke="#000000" fill="none" stroke-width="3.5" font-size="31.75">
    <path fill-rule="evenodd" vector-effect="none" d="M141.421,-8.1568 L141.421,-16.4034"/>
   </g>
   <g transform="matrix(1,0,0,1,1531.07,1058.98)" font-weight="400" stroke-dasharray="42,10.5" font-family="MS UI Gothic" stroke-linecap="round" stroke-opacity="1" stroke-dashoffset="0" stroke-linejoin="bevel" font-style="normal" stroke="#000000" fill="none" stroke-width="3.5" font-size="31.75">
    <path fill-rule="evenodd" vector-effect="none" d="M0,73.4929 L141.421,-8.1568"/>
   </g>
   <g transform="matrix(1,0,0,1,1531.07,1058.98)" font-weight="400" stroke-dasharray="42,10.5" font-family="MS UI Gothic" stroke-linecap="round" stroke-opacity="1" stroke-dashoffset="0" stroke-linejoin="bevel" font-style="normal" stroke="#000000" fill="none" stroke-width="3.5" font-size="31.75">
    <path fill-rule="evenodd" vector-effect="none" d="M0,65.2462 L141.421,-16.4034"/>
   </g>
   <g transform="matrix(1,0,0,1,1531.07,1058.98)" font-weight="400" stroke-dasharray="42,10.5" font-family="MS UI Gothic" stroke-linecap="round" stroke-opacity="1" stroke-dashoffset="0" stroke-linejoin="bevel" font-style="normal" stroke="#000000" fill="none" stroke-width="3.5" font-size="31.75">
    <path fill-rule="evenodd" vector-effect="none" d="M0,-89.8065 L0,-98.0531"/>
   </g>
   <g transform="matrix(1,0,0,1,1531.07,1058.98)" font-weight="400" stroke-dasharray="42,10.5" font-family="MS UI Gothic" stroke-linecap="round" stroke-opacity="1" stroke-dashoffset="0" stroke-linejoin="bevel" font-style="normal" stroke="#000000" fill="none" stroke-width="3.5" font-size="31.75">
    <path fill-rule="evenodd" vector-effect="none" d="M141.421,-8.1568 L0,-89.8065"/>
   </g>
   <g transform="matrix(1,0,0,1,1531.07,1058.98)" font-weight="400" stroke-dasharray="42,10.5" font-family="MS UI Gothic" stroke-linecap="round" stroke-opacity="1" stroke-dashoffset="0" stroke-linejoin="bevel" font-style="normal" stroke="#000000" fill="none" stroke-width="3.5" font-size="31.75">
    <path fill-rule="evenodd" vector-effect="none" d="M141.421,-16.4034 L0,-98.0531"/>
   </g>
   <g transform="matrix(1,0,0,1,1531.07,1058.98)" font-weight="400" stroke-dasharray="42,10.5" font-family="MS UI Gothic" stroke-linecap="round" stroke-opacity="1" stroke-dashoffset="0" stroke-linejoin="bevel" font-style="normal" stroke="#000000" fill="none" stroke-width="3.5" font-size="31.75">
    <path fill-rule="evenodd" vector-effect="none" d="M0,-89.8065 L-141.421,-8.1568"/>
   </g>
   <g transform="matrix(1,0,0,1,1531.07,1058.98)" font-weight="400" stroke-dasharray="42,10.5" font-family="MS UI Gothic" stroke-linecap="round" stroke-opacity="1" stroke-dashoffset="0" stroke-linejoin="bevel" font-style="normal" stroke="#000000" fill="none" stroke-width="3.5" font-size="31.75">
    <path fill-rule="evenodd" vector-effect="none" d="M0,-98.0531 L-141.421,-16.4034"/>
   </g>
   <g transform="matrix(1,0,0,1,1531.07,1058.98)" font-weight="400" stroke-dasharray="42,10.5" font-family="MS UI Gothic" stroke-linecap="round" stroke-opacity="1" stroke-dashoffset="0" stroke-linejoin="bevel" font-style="normal" stroke="#000000" fill="none" stroke-width="3.5" font-size="31.75">
    <path fill-rule="evenodd" vector-effect="none" d="M-353.553,-612.372 L-353.553,-285.774"/>
   </g>
   <g transform="matrix(1,0,0,1,1531.07,1058.98)" font-weight="400" stroke-dasharray="42,10.5" font-family="MS UI Gothic" stroke-linecap="round" stroke-opacity="1" stroke-dashoffset="0" stroke-linejoin="bevel" font-style="normal" stroke="#000000" fill="none" stroke-width="3.5" font-size="31.75">
    <path fill-rule="evenodd" vector-effect="none" d="M1060.66,204.124 L-353.553,-612.372"/>
   </g>
   <g transform="matrix(1,0,0,1,1531.07,1058.98)" font-weight="400" stroke-dasharray="42,10.5" font-family="MS UI Gothic" stroke-linecap="round" stroke-opacity="1" stroke-dashoffset="0" stroke-linejoin="bevel" font-style="normal" stroke="#000000" fill="none" stroke-width="3.5" font-size="31.75">
    <path fill-rule="evenodd" vector-effect="none" d="M1060.66,530.723 L-353.553,-285.774"/>
   </g>
   <g transform="matrix(1,0,0,1,1531.07,1058.98)" font-weight="400" stroke-dasharray="42,10.5" font-family="MS UI Gothic" stroke-linecap="round" stroke-opacity="1" stroke-dashoffset="0" stroke-linejoin="bevel" font-style="normal" stroke="#000000" fill="none" stroke-width="3.5" font-size="31.75">
    <path fill-rule="evenodd" vector-effect="none" d="M-353.553,-612.372 L-1060.66,-204.124"/>
   </g>
   <g transform="matrix(1,0,0,1,1531.07,1058.98)" font-weight="400" stroke-dasharray="42,10.5" font-family="MS UI Gothic" stroke-linecap="round" stroke-opacity="1" stroke-dashoffset="0" stroke-linejoin="bevel" font-style="normal" stroke="#000000" fill="none" stroke-width="3.5" font-size="31.75">
    <path fill-rule="evenodd" vector-effect="none" d="M-353.553,-612.372 L-353.553,-938.971"/>
   </g>
   <g transform="matrix(1,0,0,1,1531.07,1058.98)" font-weight="400" stroke-dasharray="42,10.5" font-family="MS UI Gothic" stroke-linecap="round" stroke-opacity="1" stroke-dashoffset="0" stroke-linejoin="bevel" font-style="normal" stroke="#000000" fill="none" stroke-width="3.5" font-size="31.75">
    <path fill-rule="evenodd" vector-effect="none" d="M-282.843,-326.599 L-353.553,-285.774"/>
   </g>
   <g transform="matrix(1,0,0,1,1531.07,1058.98)" font-weight="400" stroke-dasharray="42,10.5" font-family="MS UI Gothic" stroke-linecap="round" stroke-opacity="1" stroke-dashoffset="0" stroke-linejoin="bevel" font-style="normal" stroke="#000000" fill="none" stroke-width="3.5" font-size="31.75">
    <path fill-rule="evenodd" vector-effect="none" d="M-353.553,-285.774 L-565.685,-163.299"/>
   </g>
   <g transform="matrix(1,0,0,1,1531.07,1058.98)" font-weight="400" stroke-dasharray="42,10.5" font-family="MS UI Gothic" stroke-linecap="round" stroke-opacity="1" stroke-dashoffset="0" stroke-linejoin="bevel" font-style="normal" stroke="#000000" fill="none" stroke-width="3.5" font-size="31.75">
    <path fill-rule="evenodd" vector-effect="none" d="M-565.685,-163.299 L-1060.66,122.474"/>
   </g>
  </g>
 </g>
</svg>
