<svg width="1647" height="986" xmlns="http://www.w3.org/2000/svg" xmlns:xlink="http://www.w3.org/1999/xlink" xml:space="preserve" overflow="hidden"><defs><clipPath id="clip0"><rect x="672" y="69" width="1647" height="986"/></clipPath><clipPath id="clip1"><rect x="672" y="69" width="1645" height="984"/></clipPath><clipPath id="clip2"><rect x="672" y="69" width="1645" height="984"/></clipPath><clipPath id="clip3"><rect x="672" y="69" width="1645" height="984"/></clipPath><clipPath id="clip4"><rect x="672" y="69" width="1645" height="984"/></clipPath><clipPath id="clip5"><rect x="923" y="268" width="1320" height="647"/></clipPath><clipPath id="clip6"><rect x="672" y="69" width="1645" height="984"/></clipPath><clipPath id="clip7"><rect x="672" y="69" width="1645" height="984"/></clipPath><clipPath id="clip8"><rect x="672" y="69" width="1645" height="984"/></clipPath><clipPath id="clip9"><rect x="672" y="69" width="1645" height="984"/></clipPath><clipPath id="clip10"><rect x="672" y="69" width="1645" height="984"/></clipPath><clipPath id="clip11"><rect x="672" y="69" width="1645" height="984"/></clipPath><clipPath id="clip12"><rect x="672" y="69" width="1645" height="984"/></clipPath><clipPath id="clip13"><rect x="672" y="69" width="1645" height="984"/></clipPath><clipPath id="clip14"><rect x="672" y="69" width="1645" height="984"/></clipPath><clipPath id="clip15"><rect x="672" y="69" width="1645" height="984"/></clipPath><clipPath id="clip16"><rect x="672" y="69" width="1645" height="984"/></clipPath><clipPath id="clip17"><rect x="672" y="69" width="1645" height="984"/></clipPath><clipPath id="clip18"><rect x="672" y="69" width="1645" height="984"/></clipPath><clipPath id="clip19"><rect x="672" y="69" width="1645" height="984"/></clipPath><clipPath id="clip20"><rect x="672" y="69" width="1645" height="984"/></clipPath><clipPath id="clip21"><rect x="672" y="69" width="1645" height="984"/></clipPath><clipPath id="clip22"><rect x="672" y="69" width="1645" height="984"/></clipPath><clipPath id="clip23"><rect x="672" y="69" width="1645" height="984"/></clipPath><clipPath id="clip24"><rect x="672" y="69" width="1645" height="984"/></clipPath><clipPath id="clip25"><rect x="672" y="69" width="1645" height="984"/></clipPath><clipPath id="clip26"><rect x="672" y="69" width="1645" height="984"/></clipPath><clipPath id="clip27"><rect x="672" y="69" width="1645" height="984"/></clipPath></defs><g clip-path="url(#clip0)" transform="translate(-672 -69)"><rect x="673" y="70.0001" width="1644" height="983" fill="#FFFFFF"/><g clip-path="url(#clip1)"><path d="M923.5 912.5 2240.5 912.5M923.5 728.524 2240.5 728.524M923.5 636.521 2240.5 636.521M923.5 544.518 2240.5 544.518M923.5 452.515 2240.5 452.515M923.5 360.512 2240.5 360.512M923.5 268.5 2240.5 268.5" stroke="#D9D9D9" stroke-width="3.4375" stroke-linejoin="round" stroke-miterlimit="10" fill="none"/></g><g clip-path="url(#clip2)"><path d="M1111.54 268.5 1111.54 912.5M1299.54 268.5 1299.54 912.5M1487.55 268.5 1487.55 912.5M1676.56 268.5 1676.56 912.5M1864.56 268.5 1864.56 912.5M2052.57 268.5 2052.57 912.5M2240.5 268.5 2240.5 912.5" stroke="#D9D9D9" stroke-width="3.4375" stroke-linejoin="round" stroke-miterlimit="10" fill="none"/></g><g clip-path="url(#clip3)"><path d="M0 0 0.000360892 644" stroke="#BFBFBF" stroke-width="3.4375" stroke-linejoin="round" stroke-miterlimit="10" fill="none" fill-rule="evenodd" transform="matrix(1 0 0 -1 923.5 912.5)"/></g><g clip-path="url(#clip4)"><path d="M923.5 820.5 2240.5 820.5" stroke="#BFBFBF" stroke-width="3.4375" stroke-linejoin="round" stroke-miterlimit="10" fill="none" fill-rule="evenodd"/></g><g clip-path="url(#clip5)"><path d="M929.5 360.535C931.508 513.822 933.519 743.753 935.524 820.396 935.602 823.397 941.446 820.396 941.525 820.396 943.535 820.396 945.589 820.396 947.584 820.396 949.578 820.396 951.496 820.396 953.49 820.396 955.482 820.396 957.534 820.396 959.543 820.396 961.552 820.396 963.537 820.396 965.545 820.396 967.552 820.396 969.57 820.396 971.586 820.396 973.601 820.396 975.637 820.396 977.635 820.396 979.633 820.396 981.602 820.396 983.576 820.396 985.548 820.396 987.477 820.396 989.472 820.396 991.467 820.396 993.526 820.396 995.545 820.396 997.563 820.396 999.573 820.396 1001.58 820.396 1003.59 820.396 1005.61 820.396 1007.6 820.396 1009.58 820.396 1011.51 820.396 1013.51 820.396 1015.51 820.396 1017.58 820.396 1019.59 820.396 1021.6 820.396 1023.57 820.396 1025.56 820.396 1027.55 820.396 1029.56 820.396 1031.54 820.396 1033.53 820.396 1035.47 820.396 1037.47 820.396 1039.46 820.396 1041.49 820.396 1043.5 820.396 1045.52 820.396 1047.52 820.396 1049.54 820.396 1051.55 820.396 1053.58 820.396 1055.6 820.396 1057.62 820.396 1059.66 820.396 1061.65 820.396 1063.65 820.396 1065.59 820.396 1067.58 820.396 1069.57 820.396 1071.6 820.396 1073.61 820.396 1075.62 820.396 1077.66 820.396 1079.67 820.396 1081.67 820.396 1083.62 820.396 1085.63 820.396 1087.63 820.396 1089.68 820.396 1091.69 820.396 1093.71 820.396 1095.73 820.396 1097.74 820.396 1099.75 820.396 1101.72 820.396 1103.76 820.396 1105.8 820.396 1107.98 820.396 1109.98 820.396 1110.06 820.396 1115.71 823.295 1115.78 820.396 1117.73 743.753 1119.7 437.178 1121.68 360.535 1121.76 357.526 1127.62 360.535 1127.7 360.535 1129.7 360.535 1131.66 360.535 1133.65 360.535 1133.73 360.535 1139.59 357.526 1139.67 360.535 1141.66 437.178 1143.61 743.753 1145.61 820.396 1145.69 823.425 1151.59 820.396 1151.67 820.396 1153.66 820.396 1155.59 820.396 1157.55 820.396 1159.52 820.396 1161.49 820.396 1163.46 820.396 1165.43 820.396 1167.44 820.396 1169.38 820.396 1171.31 820.396 1173.13 820.396 1175.07 820.396 1177.02 820.396 1179.07 820.396 1181.03 820.396 1183 820.396 1184.89 820.396 1186.86 820.396 1188.83 820.396 1190.86 820.396 1192.86 820.396 1194.87 820.396 1196.89 820.396 1198.9 820.396 1200.91 820.396 1202.93 820.396 1204.93 820.396 1206.93 820.396 1208.92 820.396 1210.91 820.396 1212.89 820.396 1214.85 820.396 1216.85 820.396 1218.85 820.396 1220.86 820.396 1222.91 820.396 1224.96 820.396 1227.15 820.396 1229.15 820.396 1231.15 820.396 1232.95 820.396 1234.92 820.396 1236.89 820.396 1238.99 820.396 1240.98 820.396 1242.98 820.396 1244.91 820.396 1246.9 820.396 1248.88 820.396 1250.89 820.396 1252.89 820.396 1254.89 820.396 1256.9 820.396 1258.88 820.396 1260.87 820.396 1262.81 820.396 1264.78 820.396 1266.76 820.396 1268.75 820.396 1270.72 820.396 1272.7 820.396 1274.69 820.396 1276.62 820.396 1278.56 820.396 1280.41 820.396 1282.35 820.396 1282.42 820.396 1288.18 823.35 1288.26 820.396 1290.23 743.753 1292.22 437.178 1294.21 360.535 1294.29 357.529 1300.14 357.529 1300.22 360.535 1302.22 437.178 1304.22 743.753 1306.21 820.396 1306.28 823.367 1312.07 820.396 1312.15 820.396 1314.14 820.396 1316.14 820.396 1318.18 820.396 1320.22 820.396 1322.38 820.396 1324.39 820.396 1326.4 820.396 1328.3 820.396 1330.22 820.396 1332.15 820.396 1333.98 820.396 1335.95 820.396 1337.92 820.396 1340.02 820.396 1342.02 820.396 1344.02 820.396 1346 820.396 1347.96 820.396 1349.91 820.396 1351.76 820.396 1353.74 820.396 1355.71 820.396 1357.8 820.396 1359.8 820.396 1361.8 820.396 1363.76 820.396 1365.75 820.396 1367.75 820.396 1369.77 820.396 1371.77 820.396 1373.77 820.396 1375.75 820.396 1377.73 820.396 1379.7 820.396 1381.63 820.396 1383.62 820.396 1385.6 820.396 1387.62 820.396 1389.63 820.396 1391.64 820.396 1393.68 820.396 1395.65 820.396 1397.63 820.396 1399.52 820.396 1401.51 820.396 1403.49 820.396 1405.56 820.396 1407.57 820.396 1409.59 820.396 1411.61 820.396 1413.58 820.396 1415.55 820.396 1417.41 820.396 1419.39 820.396 1419.47 820.396 1425.38 823.432 1425.46 820.396 1427.51 743.753 1429.66 437.178 1431.65 360.535 1431.73 357.655 1437.34 357.655 1437.41 360.535 1439.38 437.178 1441.46 743.753 1443.48 820.396 1443.55 823.398 1449.4 820.396 1449.48 820.396 1451.5 820.396 1453.54 820.396 1455.57 820.396 1457.6 820.396 1459.64 820.396 1461.65 820.396 1463.67 820.396 1465.64 820.396 1467.65 820.396 1469.66 820.396 1471.72 820.396 1473.72 820.396 1475.72 820.396 1477.68 820.396 1479.67 820.396 1481.65 820.396 1483.63 820.396 1485.64 820.396 1487.65 820.396 1489.71 820.396 1491.72 820.396 1493.74 820.396 1495.73 820.396 1497.74 820.396 1499.75 820.396 1501.79 820.396 1503.8 820.396 1505.82 820.396 1507.82 820.396 1509.83 820.396 1511.85 820.396 1513.89 820.396 1515.91 820.396 1517.92 820.396 1519.91 820.396 1521.93 820.396 1523.96 820.396 1526.04 820.396 1528.04 820.396 1530.05 820.396 1531.99 820.396 1533.96 820.396 1534.04 820.396 1539.82 823.364 1539.9 820.396 1541.9 743.753 1543.94 437.178 1545.95 360.535 1546.03 357.542 1551.86 357.542 1551.93 360.535 1553.93 437.178 1555.91 743.753 1557.94 820.396 1558.02 823.5 1564.07 820.396 1564.15 820.396 1566.15 820.396 1568 820.396 1569.96 820.396 1571.92 820.396 1573.93 820.396 1575.93 820.396 1577.94 820.396 1579.96 820.396 1581.97 820.396 1583.97 820.396 1585.97 820.396 1587.96 820.396 1589.96 820.396 1591.96 820.396 1593.96 820.396 1595.95 820.396 1597.98 820.396 1599.96 820.396 1601.94 820.396 1603.86 820.396 1605.84 820.396 1607.82 820.396 1609.85 820.396 1611.85 820.396 1613.85 820.396 1615.87 820.396 1617.85 820.396 1619.82 820.396 1621.7 820.396 1623.68 820.396 1625.65 820.396 1627.69 820.396 1629.7 820.396 1629.78 820.396 1635.67 823.419 1635.75 820.396 1637.74 743.753 1639.68 437.178 1641.65 360.535 1641.72 357.59 1647.46 357.59 1647.54 360.535 1649.51 437.178 1651.5 743.753 1653.51 820.396 1653.58 823.434 1659.5 820.396 1659.58 820.396 1661.6 820.396 1663.6 820.396 1665.6 820.396 1667.6 820.396 1669.61 820.396 1671.58 820.396 1673.55 820.396 1675.45 820.396 1677.42 820.396 1679.38 820.396 1681.38 820.396 1683.38 820.396 1685.38 820.396 1687.41 820.396 1689.42 820.396 1691.43 820.396 1693.42 820.396 1695.42 820.396 1697.43 820.396 1699.32 820.396 1701.44 820.396 1703.56 820.396 1706.17 820.396 1708.15 820.396 1710.13 820.396 1711.46 820.396 1713.33 820.396 1715.2 820.396 1717.35 820.396 1719.35 820.396 1719.43 820.396 1725.28 823.397 1725.36 820.396 1727.38 743.753 1729.49 437.178 1731.52 360.535 1731.6 357.543 1737.43 357.543 1737.5 360.535 1739.49 437.178 1741.45 743.753 1743.43 820.396 1743.51 823.376 1749.31 820.396 1749.39 820.396 1751.42 820.396 1753.65 820.396 1755.64 820.396 1757.63 820.396 1759.31 820.396 1761.34 820.396 1763.36 820.396 1765.78 820.396 1767.78 820.396 1769.78 820.396 1771.42 820.396 1773.35 820.396 1775.28 820.396 1777.24 820.396 1779.37 820.396 1781.49 820.396 1784.13 820.396 1786.1 820.396 1788.08 820.396 1789.37 820.396 1791.24 820.396 1793.11 820.396 1795.32 820.396 1797.33 820.396 1799.33 820.396 1801.29 820.396 1803.26 820.396 1805.24 820.396 1807.18 820.396 1809.17 820.396 1809.25 820.396 1815.1 823.403 1815.18 820.396 1817.19 743.753 1819.2 360.535 1821.2 360.535 1823.19 360.535 1825.16 743.753 1827.15 820.396 1827.23 823.404 1833.09 820.396 1833.17 820.396 1835.17 820.396 1837.18 820.396 1839.19 820.396 1841.2 820.396 1843.24 820.396 1845.24 820.396 1847.24 820.396 1849.19 820.396 1851.19 820.396 1853.19 820.396 1855.23 820.396 1857.24 820.396 1859.24 820.396 1861.21 820.396 1863.22 820.396 1865.23 820.396 1867.3 820.396 1869.3 820.396 1871.3 820.396 1873.21 820.396 1875.21 820.396 1877.22 820.396 1878.55 820.396 1881.34 820.396 1884.12 820.396 1889.16 820.396 1891.92 820.396 1892.03 820.396 1897.84 823.391 1897.91 820.396 1899.92 743.753 1901.92 437.178 1903.94 360.535 1904.02 357.5 1909.93 357.5 1910.01 360.535 1912.01 437.178 1913.98 743.753 1915.95 820.396 1916.03 823.351 1921.79 820.396 1921.86 820.396 1923.84 820.396 1925.82 820.396 1927.8 820.396 1929.77 820.396 1931.72 820.396 1933.72 820.396 1935.71 820.396 1937.75 820.396 1939.76 820.396 1941.77 820.396 1943.76 820.396 1945.79 820.396 1947.83 820.396 1949.98 820.396 1951.98 820.396 1953.99 820.396 1955.9 820.396 1957.83 820.396 1959.76 820.396 1961.59 820.396 1963.55 820.396 1965.51 820.396 1967.58 820.396 1969.59 820.396 1971.59 820.396 1973.57 820.396 1975.59 820.396 1975.67 820.396 1981.6 823.44 1981.68 820.396 1983.68 743.753 1985.59 360.535 1987.58 360.535 1989.56 360.535 1991.64 743.753 1993.61 820.396 1993.68 823.282 1999.3 820.396 1999.38 820.396 2001.35 820.396 2003.46 820.396 2005.47 820.396 2007.47 820.396 2009.41 820.396 2011.41 820.396 2013.41 820.396 2015.44 820.396 2017.45 820.396 2019.46 820.396 2021.46 820.396 2023.48 820.396 2025.49 820.396 2027.53 820.396 2029.54 820.396 2031.55 820.396 2033.55 820.396 2035.55 820.396 2037.55 820.396 2039.54 820.396 2041.53 820.396 2043.53 820.396 2045.5 820.396 2047.5 820.396 2049.5 820.396 2051.53 820.396 2053.54 820.396 2053.62 820.396 2059.45 823.394 2059.53 820.396 2061.52 743.753 2063.46 360.535 2065.45 360.535 2067.44 360.535 2069.44 743.753 2071.45 820.396 2071.53 823.429 2077.44 820.396 2077.52 820.396 2079.52 820.396 2081.43 820.396 2083.43 820.396 2085.43 820.396 2087.51 820.396 2089.51 820.396 2091.51 820.396 2093.43 820.396 2095.43 820.396 2097.44 820.396 2099.52 820.396 2101.54 820.396 2103.57 820.396 2105.58 820.396 2107.57 820.396 2109.57 820.396 2111.54 820.396 2113.52 820.396 2115.5 820.396 2117.44 820.396 2119.44 820.396 2121.44 820.396 2123.48 820.396 2125.5 820.396" stroke="#4472C4" stroke-width="6.875" stroke-linecap="round" stroke-linejoin="round" stroke-miterlimit="10" fill="none"/></g><g clip-path="url(#clip6)"><text fill="#595959" font-family="Calibri,Calibri_MSFontService,sans-serif" font-weight="400" font-size="41" transform="matrix(1 0 0 1 820.342 924)">-0.2</text></g><g clip-path="url(#clip7)"><text fill="#595959" font-family="Calibri,Calibri_MSFontService,sans-serif" font-weight="400" font-size="41" transform="matrix(1 0 0 1 864.273 832)">0</text></g><g clip-path="url(#clip8)"><text fill="#595959" font-family="Calibri,Calibri_MSFontService,sans-serif" font-weight="400" font-size="41" transform="matrix(1 0 0 1 832.969 740)">0.2</text></g><g clip-path="url(#clip9)"><text fill="#595959" font-family="Calibri,Calibri_MSFontService,sans-serif" font-weight="400" font-size="41" transform="matrix(1 0 0 1 832.969 648)">0.4</text></g><g clip-path="url(#clip10)"><text fill="#595959" font-family="Calibri,Calibri_MSFontService,sans-serif" font-weight="400" font-size="41" transform="matrix(1 0 0 1 832.969 556)">0.6</text></g><g clip-path="url(#clip11)"><text fill="#595959" font-family="Calibri,Calibri_MSFontService,sans-serif" font-weight="400" font-size="41" transform="matrix(1 0 0 1 832.969 464)">0.8</text></g><g clip-path="url(#clip12)"><text fill="#595959" font-family="Calibri,Calibri_MSFontService,sans-serif" font-weight="400" font-size="41" transform="matrix(1 0 0 1 864.273 372)">1</text></g><g clip-path="url(#clip13)"><text fill="#595959" font-family="Calibri,Calibri_MSFontService,sans-serif" font-weight="400" font-size="41" transform="matrix(1 0 0 1 832.969 280)">1.2</text></g><g clip-path="url(#clip14)"><text fill="#595959" font-family="Calibri,Calibri_MSFontService,sans-serif" font-weight="400" font-size="41" transform="matrix(1 0 0 1 912.99 886)">0</text></g><g clip-path="url(#clip15)"><text fill="#595959" font-family="Calibri,Calibri_MSFontService,sans-serif" font-weight="400" font-size="41" transform="matrix(1 0 0 1 1085.49 886)">0.5</text></g><g clip-path="url(#clip16)"><text fill="#595959" font-family="Calibri,Calibri_MSFontService,sans-serif" font-weight="400" font-size="41" transform="matrix(1 0 0 1 1289.3 886)">1</text></g><g clip-path="url(#clip17)"><text fill="#595959" font-family="Calibri,Calibri_MSFontService,sans-serif" font-weight="400" font-size="41" transform="matrix(1 0 0 1 1461.8 886)">1.5</text></g><g clip-path="url(#clip18)"><text fill="#595959" font-family="Calibri,Calibri_MSFontService,sans-serif" font-weight="400" font-size="41" transform="matrix(1 0 0 1 1665.61 886)">2</text></g><g clip-path="url(#clip19)"><text fill="#595959" font-family="Calibri,Calibri_MSFontService,sans-serif" font-weight="400" font-size="41" transform="matrix(1 0 0 1 1838.11 886)">2.5</text></g><g clip-path="url(#clip20)"><text fill="#595959" font-family="Calibri,Calibri_MSFontService,sans-serif" font-weight="400" font-size="41" transform="matrix(1 0 0 1 2041.92 886)">3</text></g><g clip-path="url(#clip21)"><text fill="#595959" font-family="Calibri,Calibri_MSFontService,sans-serif" font-weight="400" font-size="41" transform="matrix(1 0 0 1 2214.42 886)">3.5</text></g><g clip-path="url(#clip22)"><text fill="#595959" font-family="Yu Gothic,Yu Gothic_MSFontService,sans-serif" font-weight="400" font-size="46" transform="matrix(6.12323e-17 -1 1 6.12323e-17 783.904 772)">パルス出力</text></g><g clip-path="url(#clip23)"><text fill="#595959" font-family="Calibri,Calibri_MSFontService,sans-serif" font-weight="400" font-size="46" transform="matrix(6.12323e-17 -1 1 6.12323e-17 783.904 533)">y</text></g><g clip-path="url(#clip24)"><text fill="#595959" font-family="Calibri,Calibri_MSFontService,sans-serif" font-weight="400" font-size="46" transform="matrix(6.12323e-17 -1 1 6.12323e-17 783.904 501)">[0/1]</text></g><g clip-path="url(#clip25)"><text fill="#595959" font-family="Yu Gothic,Yu Gothic_MSFontService,sans-serif" font-weight="400" font-size="46" transform="matrix(1 0 0 1 1495.1 973)">時間</text></g><g clip-path="url(#clip26)"><text fill="#595959" font-family="Calibri,Calibri_MSFontService,sans-serif" font-weight="400" font-size="46" transform="matrix(1 0 0 1 1597.13 973)">t [s]</text></g><g clip-path="url(#clip27)"><text fill="#595959" font-family="Yu Gothic,Yu Gothic_MSFontService,sans-serif" font-weight="400" font-size="64" transform="matrix(1 0 0 1 1141.91 180)">車速センサのパルス出力</text></g><rect x="673.5" y="70.5" width="1644" height="983" stroke="#D9D9D9" stroke-width="3.4375" stroke-linejoin="round" stroke-miterlimit="10" fill="none"/></g></svg>