<svg width="2022" height="1242" xmlns="http://www.w3.org/2000/svg" xmlns:xlink="http://www.w3.org/1999/xlink" xml:space="preserve" overflow="hidden"><defs><clipPath id="clip0"><rect x="2978" y="475" width="2022" height="1242"/></clipPath><clipPath id="clip1"><rect x="2979" y="476" width="2018" height="1239"/></clipPath><clipPath id="clip2"><rect x="3219" y="526" width="1731" height="797"/></clipPath><clipPath id="clip3"><rect x="3219" y="526" width="1731" height="797"/></clipPath><clipPath id="clip4"><rect x="2979" y="476" width="2018" height="1239"/></clipPath><clipPath id="clip5"><rect x="3219" y="526" width="1731" height="797"/></clipPath><clipPath id="clip6"><rect x="2979" y="476" width="2018" height="1239"/></clipPath><clipPath id="clip7"><rect x="2979" y="476" width="2018" height="1239"/></clipPath><clipPath id="clip8"><rect x="2979" y="476" width="2018" height="1239"/></clipPath><clipPath id="clip9"><rect x="2979" y="476" width="2018" height="1239"/></clipPath><clipPath id="clip10"><rect x="2979" y="476" width="2018" height="1239"/></clipPath><clipPath id="clip11"><rect x="2979" y="476" width="2018" height="1239"/></clipPath><clipPath id="clip12"><rect x="2979" y="476" width="2018" height="1239"/></clipPath><clipPath id="clip13"><rect x="2979" y="476" width="2018" height="1239"/></clipPath><clipPath id="clip14"><rect x="2979" y="476" width="2018" height="1239"/></clipPath><clipPath id="clip15"><rect x="2979" y="476" width="2018" height="1239"/></clipPath><clipPath id="clip16"><rect x="2979" y="476" width="2018" height="1239"/></clipPath><clipPath id="clip17"><rect x="2979" y="476" width="2018" height="1239"/></clipPath><clipPath id="clip18"><rect x="2979" y="476" width="2018" height="1239"/></clipPath><clipPath id="clip19"><rect x="2979" y="476" width="2018" height="1239"/></clipPath><clipPath id="clip20"><rect x="2979" y="476" width="2018" height="1239"/></clipPath><clipPath id="clip21"><rect x="2979" y="476" width="2018" height="1239"/></clipPath><clipPath id="clip22"><rect x="2979" y="476" width="2018" height="1239"/></clipPath><clipPath id="clip23"><rect x="2979" y="476" width="2018" height="1239"/></clipPath><clipPath id="clip24"><rect x="2979" y="476" width="2018" height="1239"/></clipPath><clipPath id="clip25"><rect x="2979" y="476" width="2018" height="1239"/></clipPath><clipPath id="clip26"><rect x="2979" y="476" width="2018" height="1239"/></clipPath><clipPath id="clip27"><rect x="2979" y="476" width="2018" height="1239"/></clipPath><clipPath id="clip28"><rect x="2979" y="476" width="2018" height="1239"/></clipPath><clipPath id="clip29"><rect x="2979" y="476" width="2018" height="1239"/></clipPath><clipPath id="clip30"><rect x="2979" y="476" width="2018" height="1239"/></clipPath><clipPath id="clip31"><rect x="2979" y="476" width="2018" height="1239"/></clipPath><clipPath id="clip32"><rect x="2979" y="476" width="2018" height="1239"/></clipPath><clipPath id="clip33"><rect x="2979" y="476" width="2018" height="1239"/></clipPath><clipPath id="clip34"><rect x="2979" y="476" width="2018" height="1239"/></clipPath><clipPath id="clip35"><rect x="2979" y="476" width="2018" height="1239"/></clipPath><clipPath id="clip36"><rect x="2979" y="476" width="2018" height="1239"/></clipPath><clipPath id="clip37"><rect x="2979" y="476" width="2018" height="1239"/></clipPath><clipPath id="clip38"><rect x="2979" y="476" width="2018" height="1239"/></clipPath><clipPath id="clip39"><rect x="2979" y="476" width="2018" height="1239"/></clipPath><clipPath id="clip40"><rect x="2979" y="476" width="2018" height="1239"/></clipPath><clipPath id="clip41"><rect x="2979" y="476" width="2018" height="1239"/></clipPath></defs><g clip-path="url(#clip0)" transform="translate(-2978 -475)"><rect x="2979" y="476" width="2019" height="1239" fill="#FFFFFF"/><g clip-path="url(#clip1)"><path d="M3219.5 1320.5 4947.5 1320.5M3219.5 1143.54 4947.5 1143.54M3219.5 1055.53 4947.5 1055.53M3219.5 967.532 4947.5 967.532M3219.5 879.529 4947.5 879.529M3219.5 791.526 4947.5 791.526M3219.5 703.523 4947.5 703.523M3219.5 614.52 4947.5 614.52M3219.5 526.5 4947.5 526.5" stroke="#D9D9D9" stroke-width="3.4375" stroke-linejoin="round" stroke-miterlimit="10" fill="none"/></g><g clip-path="url(#clip2)"><path d="M3273.11 633.021 3343.11 633.021 3343.11 1232.04 3273.11 1232.04ZM3519.12 744.024 3590.12 744.024 3590.12 1232.04 3519.12 1232.04ZM3766.12 814.027 3837.13 814.027 3837.13 1232.04 3766.12 1232.04ZM4013.13 887.029 4083.13 887.029 4083.13 1232.04 4013.13 1232.04ZM4260.14 997.033 4330.14 997.033 4330.14 1232.04 4260.14 1232.04ZM4507.15 1083.04 4577.15 1083.04 4577.15 1232.04 4507.15 1232.04ZM4753.16 1160.04 4824.16 1160.04 4824.16 1232.04 4753.16 1232.04Z" fill="#4472C4"/></g><g clip-path="url(#clip3)"><path d="M3343.11 641.021 3414.11 641.021 3414.11 1232.04 3343.11 1232.04ZM3590.12 747.024 3660.12 747.024 3660.12 1232.04 3590.12 1232.04ZM3837.13 818.027 3907.13 818.027 3907.13 1232.04 3837.13 1232.04ZM4083.13 923.03 4154.14 923.03 4154.14 1232.04 4083.13 1232.04ZM4330.14 994.033 4401.14 994.033 4401.14 1232.04 4330.14 1232.04ZM4577.15 1100.04 4648.15 1100.04 4648.15 1232.04 4577.15 1232.04ZM4824.16 1170.04 4894.16 1170.04 4894.16 1232.04 4824.16 1232.04Z" fill="#ED7D31"/></g><g clip-path="url(#clip4)"><path d="M3219.5 1231.5 4947.5 1231.5" stroke="#D9D9D9" stroke-width="3.4375" stroke-linejoin="round" stroke-miterlimit="10" fill="none" fill-rule="evenodd"/></g><g clip-path="url(#clip5)"><path d="M3343 1224.04 3590.12 1229.04 3837.13 1229.04 4083.13 1196 4330.14 1235 4577.15 1215.04 4824 1222.04" stroke="#A5A5A5" stroke-width="10.3125" stroke-linecap="round" stroke-linejoin="round" stroke-miterlimit="10" fill="none"/></g><g clip-path="url(#clip6)"><text fill="#595959" font-family="Calibri,Calibri_MSFontService,sans-serif" font-weight="400" font-size="41" transform="matrix(1 0 0 1 3127.08 1332)">-10</text></g><g clip-path="url(#clip7)"><text fill="#595959" font-family="Calibri,Calibri_MSFontService,sans-serif" font-weight="400" font-size="41" transform="matrix(1 0 0 1 3160.6 1244)">0</text></g><g clip-path="url(#clip8)"><text fill="#595959" font-family="Calibri,Calibri_MSFontService,sans-serif" font-weight="400" font-size="41" transform="matrix(1 0 0 1 3139.7 1155)">10</text></g><g clip-path="url(#clip9)"><text fill="#595959" font-family="Calibri,Calibri_MSFontService,sans-serif" font-weight="400" font-size="41" transform="matrix(1 0 0 1 3139.7 1067)">20</text></g><g clip-path="url(#clip10)"><text fill="#595959" font-family="Calibri,Calibri_MSFontService,sans-serif" font-weight="400" font-size="41" transform="matrix(1 0 0 1 3139.7 979)">30</text></g><g clip-path="url(#clip11)"><text fill="#595959" font-family="Calibri,Calibri_MSFontService,sans-serif" font-weight="400" font-size="41" transform="matrix(1 0 0 1 3139.7 891)">40</text></g><g clip-path="url(#clip12)"><text fill="#595959" font-family="Calibri,Calibri_MSFontService,sans-serif" font-weight="400" font-size="41" transform="matrix(1 0 0 1 3139.7 803)">50</text></g><g clip-path="url(#clip13)"><text fill="#595959" font-family="Calibri,Calibri_MSFontService,sans-serif" font-weight="400" font-size="41" transform="matrix(1 0 0 1 3139.7 715)">60</text></g><g clip-path="url(#clip14)"><text fill="#595959" font-family="Calibri,Calibri_MSFontService,sans-serif" font-weight="400" font-size="41" transform="matrix(1 0 0 1 3139.7 626)">70</text></g><g clip-path="url(#clip15)"><text fill="#595959" font-family="Calibri,Calibri_MSFontService,sans-serif" font-weight="400" font-size="41" transform="matrix(1 0 0 1 3139.7 538)">80</text></g><g clip-path="url(#clip16)"><text fill="#595959" font-family="Calibri,Calibri_MSFontService,sans-serif" font-weight="400" font-size="41" transform="matrix(1 0 0 1 3332.73 1297)">1</text></g><g clip-path="url(#clip17)"><text fill="#595959" font-family="Calibri,Calibri_MSFontService,sans-serif" font-weight="400" font-size="41" transform="matrix(1 0 0 1 3579.54 1297)">2</text></g><g clip-path="url(#clip18)"><text fill="#595959" font-family="Calibri,Calibri_MSFontService,sans-serif" font-weight="400" font-size="41" transform="matrix(1 0 0 1 3826.36 1297)">3</text></g><g clip-path="url(#clip19)"><text fill="#595959" font-family="Calibri,Calibri_MSFontService,sans-serif" font-weight="400" font-size="41" transform="matrix(1 0 0 1 4073.17 1297)">4</text></g><g clip-path="url(#clip20)"><text fill="#595959" font-family="Calibri,Calibri_MSFontService,sans-serif" font-weight="400" font-size="41" transform="matrix(1 0 0 1 4319.99 1297)">5</text></g><g clip-path="url(#clip21)"><text fill="#595959" font-family="Calibri,Calibri_MSFontService,sans-serif" font-weight="400" font-size="41" transform="matrix(1 0 0 1 4566.8 1297)">6</text></g><g clip-path="url(#clip22)"><text fill="#595959" font-family="Calibri,Calibri_MSFontService,sans-serif" font-weight="400" font-size="41" transform="matrix(1 0 0 1 4813.62 1297)">7</text></g><g clip-path="url(#clip23)"><text fill="#595959" font-family="Yu Gothic,Yu Gothic_MSFontService,sans-serif" font-weight="400" font-size="46" transform="matrix(6.12323e-17 -1 1 6.12323e-17 3090.64 1107)">速度、誤差</text></g><g clip-path="url(#clip24)"><text fill="#595959" font-family="Calibri,Calibri_MSFontService,sans-serif" font-weight="400" font-size="46" transform="matrix(6.12323e-17 -1 1 6.12323e-17 3090.64 867)">[km/h]</text></g><g clip-path="url(#clip25)"><text fill="#595959" font-family="Yu Gothic,Yu Gothic_MSFontService,sans-serif" font-weight="400" font-size="46" transform="matrix(1 0 0 1 3991.96 1381)">軸ラベル</text></g><g clip-path="url(#clip26)"><rect x="3550" y="1488" width="88" height="23" fill="#4472C4"/></g><g clip-path="url(#clip27)"><text fill="#595959" font-family="Yu Gothic,Yu Gothic_MSFontService,sans-serif" font-weight="400" font-size="41" transform="matrix(1 0 0 1 3647.21 1518)">理論値</text></g><g clip-path="url(#clip28)"><text fill="#595959" font-family="Calibri,Calibri_MSFontService,sans-serif" font-weight="400" font-size="41" transform="matrix(1 0 0 1 3647.21 1577)">v_real</text></g><g clip-path="url(#clip29)"><text fill="#595959" font-family="Calibri,Calibri_MSFontService,sans-serif" font-weight="400" font-size="41" transform="matrix(1 0 0 1 3656.54 1628)">[km/h]</text></g><g clip-path="url(#clip30)"><rect x="3825" y="1488" width="88" height="23" fill="#ED7D31"/></g><g clip-path="url(#clip31)"><text fill="#595959" font-family="Yu Gothic,Yu Gothic_MSFontService,sans-serif" font-weight="400" font-size="41" transform="matrix(1 0 0 1 3922.34 1517)">アプリ</text></g><g clip-path="url(#clip32)"><text fill="#595959" font-family="Yu Gothic,Yu Gothic_MSFontService,sans-serif" font-weight="400" font-size="41" transform="matrix(1 0 0 1 3922.34 1586)">表示値</text></g><g clip-path="url(#clip33)"><text fill="#595959" font-family="Calibri,Calibri_MSFontService,sans-serif" font-weight="400" font-size="41" transform="matrix(1 0 0 1 3922.34 1645)">v_app</text></g><g clip-path="url(#clip34)"><text fill="#595959" font-family="Calibri,Calibri_MSFontService,sans-serif" font-weight="400" font-size="41" transform="matrix(1 0 0 1 3922.34 1696)">[km/h]</text></g><g clip-path="url(#clip35)"><path d="M4100 1500 4188 1500" stroke="#A5A5A5" stroke-width="10.3125" stroke-linecap="round" stroke-linejoin="round" stroke-miterlimit="10" fill="none" fill-rule="evenodd"/></g><g clip-path="url(#clip36)"><text fill="#595959" font-family="Yu Gothic,Yu Gothic_MSFontService,sans-serif" font-weight="400" font-size="41" transform="matrix(1 0 0 1 4197.28 1518)">誤差</text></g><g clip-path="url(#clip37)"><text fill="#595959" font-family="Calibri,Calibri_MSFontService,sans-serif" font-weight="400" font-size="41" transform="matrix(1 0 0 1 4289.11 1518)">e =</text></g><g clip-path="url(#clip38)"><text fill="#595959" font-family="Calibri,Calibri_MSFontService,sans-serif" font-weight="400" font-size="41" transform="matrix(1 0 0 1 4206.61 1577)">v_real </text></g><g clip-path="url(#clip39)"><text fill="#595959" font-family="Calibri,Calibri_MSFontService,sans-serif" font-weight="400" font-size="41" transform="matrix(1 0 0 1 4319.24 1577)">-</text></g><g clip-path="url(#clip40)"><text fill="#595959" font-family="Calibri,Calibri_MSFontService,sans-serif" font-weight="400" font-size="41" transform="matrix(1 0 0 1 4341.2 1577)">v_app</text></g><g clip-path="url(#clip41)"><text fill="#595959" font-family="Calibri,Calibri_MSFontService,sans-serif" font-weight="400" font-size="41" transform="matrix(1 0 0 1 4197.28 1628)">[km/h]</text></g><rect x="2979.5" y="476.5" width="2019" height="1239" stroke="#D9D9D9" stroke-width="3.4375" stroke-linejoin="round" stroke-miterlimit="10" fill="none"/></g></svg>